Results
version=1
nRows=29
nColumns=24
inDegrees=yes
endheader
time	pelvis_tilt	pelvis_list	pelvis_rotation	pelvis_tx	pelvis_ty	pelvis_tz	hip_flexion_r	hip_adduction_r	hip_rotation_r	knee_angle_r	ankle_angle_r	subtalar_angle_r	mtp_angle_r	hip_flexion_l	hip_adduction_l	hip_rotation_l	knee_angle_l	ankle_angle_l	subtalar_angle_l	mtp_angle_l	lumbar_extension	lumbar_bending	lumbar_rotation
      0.85816667	     -2.89857192	     -1.96606423	     -0.56230580	     -0.42180122	      1.00696917	      0.34021976	     14.06060991	      4.98244036	      0.17201062	    -19.06006482	      8.86129415	     -8.19339926	      2.06027024	     16.28883352	     -2.51257237	     -3.29792940	    -68.87898411	     -7.59941368	     -9.45578936	      5.66760027	     -9.29538511	      9.86825177	     -0.22787622
      0.86233333	     -2.82934758	     -1.82167829	     -0.58681130	     -0.41690283	      1.00800587	      0.34060671	     13.48365523	      4.85644739	      0.23547603	    -18.66447006	      8.92943246	     -8.15481616	      2.06304759	     16.76878946	     -2.43258708	     -3.42956854	    -68.72251824	     -7.10759766	     -9.71960869	      5.57070406	     -9.42682191	      9.63468007	      0.02721542
      0.86650000	     -2.75008643	     -1.68667919	     -0.61930508	     -0.41199358	      1.00901520	      0.34099299	     12.89065325	      4.74103933	      0.30671118	    -18.25710625	      8.99531570	     -8.12173563	      2.06504918	     17.22541294	     -2.36548124	     -3.56795347	    -68.51822744	     -6.62867542	     -9.95836883	      5.46879905	     -9.56734796	      9.41886245	      0.29046945
      0.87066667	     -2.65740124	     -1.52380591	     -0.65945657	     -0.40708321	      1.01002763	      0.34137248	     12.28880552	      4.59399199	      0.37908031	    -17.86188184	      9.07383943	     -8.07176050	      2.06592697	     17.64886009	     -2.26374280	     -3.71540824	    -68.24462649	     -6.16885313	    -10.18178841	      5.35997992	     -9.72257456	      9.16917222	      0.54480698
      0.87483333	     -2.59992296	     -1.35803662	     -0.70968335	     -0.40217165	      1.01095335	      0.34176126	     11.73141606	      4.44415591	      0.45330069	    -17.47846714	      9.15088103	     -8.02327674	      2.06549814	     18.09739517	     -2.15976171	     -3.86738250	    -67.91970040	     -5.72064912	    -10.38890210	      5.25026768	     -9.83616497	      8.91065789	      0.80479395
      0.87900000	     -2.51598633	     -1.19066892	     -0.75458726	     -0.39726307	      1.01187843	      0.34212889	     11.14317881	      4.28811037	      0.51755494	    -17.08834259	      9.23002463	     -7.96579325	      2.06379158	     18.50758877	     -2.05160298	     -4.01818960	    -67.54754733	     -5.28040683	    -10.56857685	      5.15330853	     -9.96895962	      8.65791670	      1.03045933
      0.88316667	     -2.43065189	     -1.03220949	     -0.80400331	     -0.39234719	      1.01276892	      0.34249174	     10.55080835	      4.14141194	      0.58768324	    -16.69180886	      9.30417829	     -7.91391967	      2.06008541	     18.90128315	     -1.95274506	     -4.16756107	    -67.12488432	     -4.84287342	    -10.72085852	      5.05105163	    -10.10879460	      8.41337567	      1.27699739
      0.88733333	     -2.35034095	     -0.86372795	     -0.85540825	     -0.38744035	      1.01361254	      0.34284275	      9.97042442	      3.98101590	      0.65240315	    -16.30588385	      9.38235701	     -7.85765557	      2.05520745	     19.28761575	     -1.83769446	     -4.31265061	    -66.64930634	     -4.41761131	    -10.85207515	      4.95327310	    -10.24348796	      8.15672705	      1.50336405
      0.89150000	     -2.30784253	     -0.69148927	     -0.90729378	     -0.38255427	      1.01435575	      0.34317979	      9.43985856	      3.81491305	      0.71925026	    -15.93556977	      9.45263665	     -7.79307336	      2.04993455	     19.70571513	     -1.71256726	     -4.44563010	    -66.12963891	     -3.99084295	    -10.96016592	      4.87057464	    -10.34276434	      7.90930594	      1.70564146
      0.89566667	     -2.19819573	     -0.53922812	     -0.95812344	     -0.37762167	      1.01516453	      0.34352244	      8.82201015	      3.66781732	      0.77172729	    -15.53785329	      9.54050738	     -7.73696682	      2.04153226	     20.03001295	     -1.61658256	     -4.58928235	    -65.55359298	     -3.57658907	    -11.03842713	      4.76594145	    -10.49421122	      7.66372420	      1.95446521
      0.89983333	     -2.14045250	     -0.37151441	     -1.01034779	     -0.37272259	      1.01584104	      0.34383107	      8.27684865	      3.50130344	      0.82584720	    -15.17030273	      9.62998747	     -7.67276755	      2.03209586	     20.40113183	     -1.49145701	     -4.71594829	    -64.93280088	     -3.16700574	    -11.09186269	      4.66096366	    -10.59968109	      7.41475367	      2.17158683
      0.90400000	     -2.06579217	     -0.20873388	     -1.05862011	     -0.36781873	      1.01650363	      0.34412731	      7.71263175	      3.33672681	      0.87037338	    -14.79998370	      9.71890383	     -7.60275296	      2.02189200	     20.73904573	     -1.36781144	     -4.83372291	    -64.26145956	     -2.76507621	    -11.12780856	      4.56018811	    -10.71995563	      7.17090561	      2.36871829
      0.90816667	     -2.01951379	     -0.04587350	     -1.10817828	     -0.36291777	      1.01707765	      0.34441170	      7.18579188	      3.17055510	      0.91126619	    -14.44231195	      9.81088644	     -7.53128879	      2.01044676	     21.09375339	     -1.23990120	     -4.94318139	    -63.54265034	     -2.37141990	    -11.13931022	      4.46009401	    -10.80776186	      6.93124011	      2.56362011
      0.91233333	     -1.95738591	      0.09851748	     -1.15293374	     -0.35801894	      1.01761330	      0.34467527	      6.64027641	      3.02163655	      0.94702116	    -14.08054626	      9.89977186	     -7.46275041	      1.99787582	     21.41997016	     -1.12681391	     -5.03709063	    -62.78487954	     -1.97814494	    -11.12610788	      4.36064936	    -10.91394119	      6.71073557	      2.75077927
      0.91650000	     -1.91193978	      0.23344366	     -1.19458336	     -0.35311962	      1.01808775	      0.34492610	      6.11276829	      2.88232575	      0.98575607	    -13.71757019	      9.98276273	     -7.40566414	      1.98325307	     21.74996402	     -1.01826697	     -5.11609551	    -61.98008904	     -1.60007767	    -11.09086071	      4.25920118	    -11.00197524	      6.50725412	      2.93199055
      0.92066667	     -1.88474702	      0.38216526	     -1.23745632	     -0.34822401	      1.01849014	      0.34514615	      5.61898302	      2.72372944	      1.00890744	    -13.38183237	     10.04185115	     -7.34632155	      1.97350176	     22.08118305	     -0.88416394	     -5.18056933	    -61.11931266	     -1.23589438	    -11.05432702	      4.19999791	    -11.06111042	      6.30708485	      3.04918672
      0.92483333	     -1.84588005	      0.51773127	     -1.27260001	     -0.34332368	      1.01884604	      0.34535299	      5.10828123	      2.57771418	      1.02577932	    -13.03839237	     10.13365077	     -7.27450239	      1.96408507	     22.38773597	     -0.76021118	     -5.23173593	    -60.21893068	     -0.89200968	    -10.99551652	      4.14170445	    -11.13914662	      6.10352247	      3.19414545
      0.92900000	     -1.76351500	      0.63062066	     -1.30802564	     -0.33840873	      1.01922231	      0.34555749	      4.54018122	      2.45401781	      1.04327028	    -12.67577492	     10.27050371	     -7.17608482	      1.94679803	     22.62940740	     -0.65881243	     -5.27411209	    -59.27253709	     -0.58174805	    -10.92691287	      4.03133814	    -11.27843349	      5.91557638	      3.41641322
      0.93316667	     -1.78483480	      0.73426741	     -1.33138165	     -0.33349864	      1.01938597	      0.34574386	      4.09434608	      2.34216643	      1.04893146	    -12.33219619	     10.34313696	     -7.11931427	      1.93916340	     22.97791653	     -0.56074598	     -5.29168450	    -58.29884211	     -0.28139999	    -10.87140547	      3.99136599	    -11.27635483	      5.74765504	      3.48988795
      0.93733333	     -1.71962701	      0.85673873	     -1.36812371	     -0.32857378	      1.01964604	      0.34589022	      3.56331597	      2.20185767	      1.05031428	    -12.00862791	     10.42755401	     -7.04426450	      1.92659595	     23.19743993	     -0.42889595	     -5.29916675	    -57.24180720	     -0.00814898	    -10.75894345	      3.92687371	    -11.38131744	      5.58015244	      3.64782081
      0.94150000	     -1.66969190	      0.95587125	     -1.39571904	     -0.32362656	      1.01983878	      0.34603252	      3.03603925	      2.08680213	      1.04679378	    -11.66094288	     10.52944958	     -6.95620505	      1.91345994	     23.42063217	     -0.31931327	     -5.28995818	    -56.14930361	      0.22921334	    -10.67680423	      3.85840435	    -11.46856718	      5.42585903	      3.79422236
      0.94566667	     -1.60875344	      1.03782835	     -1.41877048	     -0.31867176	      1.01998773	      0.34616524	      2.49585139	      1.98931521	      1.03865718	    -11.31416400	     10.63373176	     -6.86822924	      1.89869790	     23.61681754	     -0.22275491	     -5.26234252	    -55.01723747	      0.43305812	    -10.59952614	      3.78536358	    -11.56780592	      5.28978549	      3.93498907
      0.94983333	     -1.58261683	      1.11253627	     -1.44152690	     -0.31371351	      1.02003098	      0.34628071	      1.99625497	      1.89881110	      1.02552200	    -10.97307051	     10.73915331	     -6.77871322	      1.88436403	     23.83572854	     -0.12905117	     -5.22025976	    -53.84452360	      0.60332436	    -10.52755562	      3.71616164	    -11.62640569	      5.16981474	      4.06193648
      0.95400000	     -1.53527405	      1.18578214	     -1.46041760	     -0.30872684	      1.02006124	      0.34638793	      1.46495618	      1.80698078	      0.99756742	    -10.61540245	     10.84109623	     -6.67749074	      1.86962503	     24.01143457	     -0.03468674	     -5.17331309	    -52.62355004	      0.73701826	    -10.46306114	      3.64809899	    -11.72113308	      5.04281012	      4.18556866
      0.95816667	     -1.48799573	      1.24258931	     -1.48114834	     -0.30372654	      1.02003670	      0.34647635	      0.94079967	      1.73220994	      0.97023203	    -10.27935678	     10.95787787	     -6.56980020	      1.85317299	     24.16494092	      0.05292718	     -5.09652470	    -51.35199016	      0.82877294	    -10.41556590	      3.57197040	    -11.79190477	      4.94223514	      4.31784104
      0.96233333	     -1.41340371	      1.29095455	     -1.49586892	     -0.29870246	      1.02001125	      0.34654878	      0.37505800	      1.66358562	      0.92668917	     -9.91891006	     11.06043128	     -6.45264203	      1.83563171	     24.27012983	      0.13483056	     -5.01131502	    -50.03503144	      0.88415464	    -10.37693277	      3.49405012	    -11.90799579	      4.85053482	      4.44219120
      0.96650000	     -1.33916161	      1.33632249	     -1.51790713	     -0.29366232	      1.01992801	      0.34661525	     -0.18728248	      1.59595254	      0.88213684	     -9.56975737	     11.22785236	     -6.31047124	      1.80989763	     24.35340909	      0.21598061	     -4.91774403	    -48.66926956	      0.88390777	    -10.39705485	      3.37879333	    -12.02363710	      4.77065397	      4.58782853
      0.97066667	     -1.30805189	      1.37372628	     -1.53471592	     -0.28860101	      1.01974682	      0.34667393	     -0.70450088	      1.53848078	      0.83311307	     -9.21636388	     11.29591837	     -6.19486202	      1.79088608	     24.46436185	      0.29066589	     -4.80819512	    -47.26013390	      0.87001827	    -10.35346468	      3.30302462	    -12.07923817	      4.68929876	      4.68767752
      0.97483333	     -1.25165104	      1.39140914	     -1.54764575	     -0.28352083	      1.01953014	      0.34672955	     -1.25905980	      1.50239073	      0.78182080	     -8.84866821	     11.40825498	     -6.07238669	      1.77113898	     24.53176323	      0.34789791	     -4.68246750	    -45.81684726	      0.80614565	    -10.36732611	      3.22189595	    -12.16800607	      4.63298672	      4.80866412
